<!-- Pages: 1 -->
<svg width="993pt" height="470pt"
 viewBox="0.00 0.00 993.00 470.00" xmlns="http://www.w3.org/2000/svg" xmlns:xlink="http://www.w3.org/1999/xlink" role="img" aria-labelledby="C4-L2-AWS-title C4-L2-AWS-desc" preserveAspectRatio="xMidYMid meet" style="background:#ffffff;max-width:100%;height:auto">
<title id="C4-L2-AWS-title">Biên sở hữu container và trust boundary — C4-L2-AWS</title>
<desc id="C4-L2-AWS-desc">Sơ đồ element gồm 5 nút và 3 quan hệ.</desc>
<g id="graph0" class="graph" transform="scale(1 1) rotate(0) translate(15.05 455.45)">
<g id="clust1" class="cluster">
<title>cluster_@gr1</title>
<polygon fill="#eff6ff" stroke="#1d4ed8" points="303.02,-8 303.02,-244.2 955.02,-244.2 955.02,-8 303.02,-8"/>
<text xml:space="preserve" text-anchor="start" x="311.02" y="-231.3" font-family="Arial" font-weight="bold" font-size="11.00" fill="#1e3a8a" fill-opacity="0.701961">TRUST&#45;DATA&#45;PLATFORM</text>
</g>
<!-- publish -->
<g id="node1" class="node">
<title>publish</title>
<polygon fill="#dbeafe" stroke="#1d4ed8" stroke-width="0" points="583.05,-183 343,-183 343,-48 583.05,-48 583.05,-183"/>
<text xml:space="preserve" text-anchor="start" x="368.32" y="-117.7" font-family="Arial" font-size="16.00" fill="#111827">Xuất bản có kiểm chứng</text>
<text xml:space="preserve" text-anchor="start" x="436.43" y="-99.5" font-family="Arial" font-size="11.00" fill="#1e3a8a">locked&#45;tool</text>
</g>
<!-- restore -->
<g id="node2" class="node">
<title>restore</title>
<polygon fill="#dbeafe" stroke="#1d4ed8" stroke-width="0" points="915.05,-183 675,-183 675,-48 915.05,-48 915.05,-183"/>
<text xml:space="preserve" text-anchor="start" x="698.08" y="-117.7" font-family="Arial" font-size="16.00" fill="#111827">Khôi phục có bằng chứng</text>
<text xml:space="preserve" text-anchor="start" x="770.88" y="-99.5" font-family="Arial" font-size="11.00" fill="#1e3a8a">repository</text>
</g>
<!-- author -->
<g id="node3" class="node">
<title>author</title>
<polygon fill="#dbeafe" stroke="#1d4ed8" stroke-width="0" points="240.05,-440.4 0,-440.4 0,-305.4 240.05,-305.4 240.05,-440.4"/>
<text xml:space="preserve" text-anchor="start" x="45.33" y="-366.5" font-family="Arial" font-size="16.00" fill="#111827">Tác giả quyết định</text>
</g>
<!-- verify -->
<g id="node4" class="node">
<title>verify</title>
<polygon fill="#dbeafe" stroke="#1d4ed8" stroke-width="0" points="583.05,-440.4 343,-440.4 343,-305.4 583.05,-305.4 583.05,-440.4"/>
<text xml:space="preserve" text-anchor="start" x="395.01" y="-375.1" font-family="Arial" font-size="16.00" fill="#111827">Xác minh kiến trúc</text>
<text xml:space="preserve" text-anchor="start" x="438.88" y="-356.9" font-family="Arial" font-size="11.00" fill="#1e3a8a">repository</text>
</g>
<!-- publish&#45;&gt;restore -->
<g id="edge3" class="edge">
<title>publish&#45;&gt;restore</title>
<path fill="none" stroke="#374151" stroke-width="2" stroke-dasharray="5,2" d="M582.88,-115.5C609.48,-115.5 637.8,-115.5 664.79,-115.5"/>
<polygon fill="#374151" stroke="#374151" stroke-width="2" points="664.53,-118.13 672.03,-115.5 664.53,-112.88 664.53,-118.13"/>
<polygon fill="#f8fafc" fill-opacity="0.627451" stroke="none" points="593.01,-118.5 593.01,-161.7 665.04,-161.7 665.04,-118.5 593.01,-118.5"/>
<text xml:space="preserve" text-anchor="start" x="596.01" y="-144.7" font-family="Arial" font-size="14.00" fill="#111827">khôi phục</text>
<text xml:space="preserve" text-anchor="start" x="596.01" y="-123.9" font-family="Arial" font-size="12.00" fill="#111827">[ repository ]</text>
</g>
<!-- author&#45;&gt;verify -->
<g id="edge1" class="edge">
<title>author&#45;&gt;verify</title>
<path fill="none" stroke="#374151" stroke-width="2" stroke-dasharray="5,2" d="M239.99,-372.9C270.02,-372.9 302.37,-372.9 332.86,-372.9"/>
<polygon fill="#374151" stroke="#374151" stroke-width="2" points="332.6,-375.53 340.1,-372.9 332.6,-370.28 332.6,-375.53"/>
<polygon fill="#f8fafc" fill-opacity="0.627451" stroke="none" points="250,-375.9 250,-419.1 333.04,-419.1 333.04,-375.9 250,-375.9"/>
<text xml:space="preserve" text-anchor="start" x="253" y="-402.1" font-family="Arial" font-size="14.00" fill="#111827">quyết định</text>
<text xml:space="preserve" text-anchor="start" x="253" y="-381.3" font-family="Arial" font-size="12.00" fill="#111827">[ repository ]</text>
</g>
<!-- verify&#45;&gt;publish -->
<g id="edge2" class="edge">
<title>verify&#45;&gt;publish</title>
<path fill="none" stroke="#374151" stroke-width="2" stroke-dasharray="5,2" d="M463.02,-305.46C463.02,-271.03 463.02,-228.8 463.02,-193"/>
<polygon fill="#374151" stroke="#374151" stroke-width="2" points="465.65,-193.13 463.02,-185.63 460.4,-193.13 465.65,-193.13"/>
<polygon fill="#f8fafc" fill-opacity="0.627451" stroke="none" points="463.02,-252.2 463.02,-295.4 549.97,-295.4 549.97,-252.2 463.02,-252.2"/>
<text xml:space="preserve" text-anchor="start" x="466.02" y="-278.4" font-family="Arial" font-size="14.00" fill="#111827">bằng chứng</text>
<text xml:space="preserve" text-anchor="start" x="466.02" y="-257.6" font-family="Arial" font-size="12.00" fill="#111827">[ locked&#45;tool ]</text>
</g>
</g>
</svg>
